<?xml version="1.0" encoding="UTF-8" ?>
<!DOCTYPE svg PUBLIC "-//W3C//DTD SVG 1.1//EN" "http://www.w3.org/Graphics/SVG/1.1/DTD/svg11.dtd">
<svg width="128" height="128"  viewBox="0 0 800 800" version="1.1" xmlns="http://www.w3.org/2000/svg">
<g id="perplexity-mark">
<path fill="currentColor" opacity="1.00" d=" M 382.02 84.37 C 393.67 84.38 405.32 84.40 416.97 84.36 C 417.04 139.73 416.98 195.11 417.00 250.48 C 477.32 195.06 537.54 139.53 597.74 83.98 C 597.76 146.99 597.74 209.99 597.75 273.00 C 622.50 273.00 647.25 273.00 672.00 273.00 C 672.00 363.92 672.01 454.84 671.99 545.75 C 647.33 545.74 622.67 545.75 598.00 545.75 C 597.98 601.83 598.03 657.91 597.98 713.99 C 537.60 661.08 477.37 607.99 417.00 555.07 C 417.00 608.68 417.01 662.28 416.99 715.88 C 405.33 715.87 393.67 715.87 382.01 715.88 C 381.99 663.13 382.00 610.39 382.00 557.64 C 322.11 610.45 262.13 663.16 202.27 716.00 C 202.23 659.25 202.27 602.50 202.25 545.75 C 177.50 545.75 152.75 545.74 128.01 545.75 C 127.99 454.84 128.00 363.92 128.00 273.00 C 152.67 273.00 177.33 273.00 202.00 273.00 C 202.00 210.02 202.01 147.04 201.99 84.07 C 262.06 139.27 322.07 194.55 381.99 249.91 C 382.03 194.73 381.97 139.55 382.02 84.37 M 236.99 163.55 C 237.02 200.03 236.99 236.52 237.00 273.00 C 276.60 273.01 316.21 272.98 355.81 273.01 C 316.20 236.53 276.61 200.02 236.99 163.55 M 443.96 272.98 C 483.56 273.02 523.16 273.00 562.75 272.99 C 562.74 236.55 562.76 200.12 562.74 163.68 C 523.06 200.01 483.63 236.64 443.96 272.98 M 163.00 307.62 C 163.00 375.46 163.00 443.29 163.00 511.12 C 176.04 511.12 189.08 511.13 202.12 511.12 C 202.14 489.74 202.12 468.36 202.13 446.99 C 253.24 400.52 304.47 354.18 355.50 307.63 C 291.34 307.61 227.17 307.62 163.00 307.62 M 445.86 307.57 C 466.83 326.79 488.02 345.77 509.05 364.93 C 538.73 391.66 568.15 418.67 597.93 445.28 C 598.09 467.22 597.95 489.17 598.00 511.12 C 611.00 511.13 624.00 511.13 637.00 511.12 C 637.00 443.29 637.00 375.46 637.00 307.62 C 573.28 307.58 509.57 307.69 445.86 307.57 M 237.23 462.22 C 237.28 521.03 237.21 579.84 237.27 638.65 C 285.63 596.31 333.78 553.73 382.02 511.25 C 381.93 451.14 382.10 391.03 381.94 330.92 C 333.64 374.62 285.57 418.57 237.23 462.22 M 418.00 330.62 C 418.01 389.79 417.98 448.95 418.01 508.11 C 417.90 509.25 418.32 510.14 419.28 510.78 C 467.24 552.76 515.01 594.97 563.00 636.92 C 563.21 578.69 562.55 520.48 562.78 462.25 C 514.65 418.24 466.21 374.55 418.00 330.62 Z" />
</g>
</svg>
